<svg width="60" height="60" viewBox="0 0 60 60" fill="none" xmlns="http://www.w3.org/2000/svg">
<rect width="60" height="60" rx="12" fill="#EEF2FF"/>
<path d="M34.6506 26.1392H38.4091C37.7827 22.142 34.3224 19.358 29.8182 19.358C24.4886 19.358 20.4915 23.2756 20.4915 29.8381C20.4915 36.2812 24.3097 40.2784 29.9276 40.2784C34.9688 40.2784 38.5781 37.0369 38.5781 31.7869V29.3409H30.3153V32.2244H35.0085C34.9489 35.1278 33.0099 36.9673 29.9474 36.9673C26.5369 36.9673 24.2003 34.4119 24.2003 29.7983C24.2003 25.2145 26.5767 22.669 29.8679 22.669C32.3239 22.669 33.9943 23.9815 34.6506 26.1392Z" fill="#4F46E5"/>
</svg>
