<svg width="720" height="333" viewBox="0 0 720 333" fill="none" xmlns="http://www.w3.org/2000/svg">
<rect x="166.495" y="124.004" width="82.8842" height="82.8842" rx="18" fill="url(#paint0_linear_3_135)" fill-opacity="0.4"/>
<g clip-path="url(#clip0_3_135)">
<path d="M225.74 156.682C225.167 156.483 224.573 156.294 223.962 156.116C224.062 155.702 224.154 155.292 224.236 154.89C225.583 148.285 224.703 142.964 221.696 141.213C218.814 139.533 214.1 141.284 209.338 145.471C208.88 145.874 208.421 146.3 207.962 146.747C207.657 146.451 207.351 146.166 207.047 145.893C202.057 141.415 197.055 139.529 194.052 141.286C191.172 142.97 190.319 147.972 191.532 154.232C191.649 154.836 191.785 155.454 191.94 156.082C191.232 156.285 190.549 156.501 189.895 156.731C184.045 158.792 180.309 162.023 180.309 165.373C180.309 168.834 184.32 172.305 190.413 174.409C190.894 174.575 191.393 174.732 191.907 174.881C191.74 175.56 191.595 176.226 191.473 176.875C190.317 183.025 191.22 187.909 194.092 189.583C197.059 191.312 202.038 189.535 206.886 185.253C207.269 184.914 207.654 184.555 208.039 184.179C208.538 184.665 209.037 185.125 209.533 185.556C214.229 189.64 218.867 191.289 221.736 189.61C224.7 187.876 225.663 182.63 224.413 176.246C224.317 175.759 224.206 175.261 224.081 174.754C224.431 174.649 224.774 174.542 225.109 174.429C231.443 172.309 235.565 168.88 235.565 165.373C235.565 162.011 231.708 158.759 225.74 156.682ZM224.367 172.165C224.064 172.266 223.754 172.364 223.438 172.459C222.739 170.222 221.795 167.843 220.64 165.385C221.742 162.986 222.65 160.637 223.33 158.414C223.895 158.58 224.443 158.754 224.972 158.938C230.085 160.717 233.204 163.347 233.204 165.373C233.204 167.532 229.836 170.334 224.367 172.165ZM222.097 176.71C222.65 179.532 222.729 182.084 222.363 184.079C222.034 185.872 221.372 187.067 220.553 187.546C218.812 188.564 215.088 187.24 211.072 183.748C210.612 183.347 210.148 182.92 209.683 182.467C211.24 180.747 212.796 178.746 214.314 176.525C216.986 176.285 219.509 175.893 221.798 175.359C221.911 175.818 222.011 176.269 222.097 176.71ZM199.147 187.37C197.446 187.977 196.09 187.994 195.271 187.517C193.528 186.501 192.804 182.58 193.792 177.319C193.905 176.717 194.04 176.098 194.195 175.466C196.459 175.972 198.964 176.335 201.642 176.555C203.171 178.729 204.772 180.727 206.385 182.477C206.033 182.821 205.682 183.148 205.332 183.457C203.189 185.35 201.04 186.694 199.147 187.37ZM191.176 172.152C188.482 171.221 186.257 170.012 184.732 168.692C183.361 167.506 182.669 166.329 182.669 165.373C182.669 163.34 185.669 160.747 190.672 158.984C191.279 158.77 191.915 158.568 192.574 158.379C193.265 160.652 194.172 163.028 195.267 165.431C194.158 167.87 193.238 170.284 192.54 172.584C192.07 172.447 191.615 172.303 191.176 172.152ZM193.848 153.774C192.81 148.411 193.499 144.365 195.235 143.35C197.083 142.269 201.171 143.811 205.479 147.676C205.755 147.923 206.031 148.182 206.309 148.45C204.703 150.192 203.117 152.175 201.601 154.336C199.003 154.579 196.515 154.97 194.228 155.494C194.084 154.909 193.957 154.335 193.848 153.774ZM217.683 159.721C217.136 158.767 216.575 157.835 216.003 156.929C217.766 157.154 219.455 157.453 221.041 157.819C220.565 159.361 219.971 160.974 219.273 162.627C218.771 161.665 218.241 160.696 217.683 159.721ZM207.963 150.154C209.052 151.346 210.142 152.677 211.215 154.121C210.134 154.07 209.04 154.043 207.937 154.043C206.844 154.043 205.758 154.069 204.684 154.12C205.758 152.689 206.857 151.36 207.963 150.154ZM198.181 159.738C197.635 160.695 197.115 161.659 196.621 162.625C195.934 160.978 195.346 159.358 194.865 157.793C196.442 157.437 198.123 157.145 199.875 156.925C199.295 157.839 198.729 158.778 198.181 159.737V159.738ZM199.925 173.992C198.116 173.788 196.409 173.511 194.833 173.165C195.321 171.573 195.922 169.918 196.624 168.235C197.119 169.201 197.641 170.165 198.19 171.124H198.191C198.75 172.102 199.33 173.059 199.925 173.992ZM208.029 180.76C206.91 179.54 205.794 178.191 204.704 176.74C205.762 176.782 206.841 176.803 207.937 176.803C209.063 176.803 210.177 176.777 211.272 176.728C210.196 178.206 209.11 179.557 208.029 180.76ZM219.295 168.149C220.034 169.851 220.656 171.496 221.151 173.061C219.549 173.431 217.819 173.728 215.996 173.949C216.57 173.031 217.136 172.083 217.693 171.108C218.255 170.122 218.79 169.134 219.295 168.149ZM215.648 169.916C214.784 171.43 213.897 172.874 212.997 174.238C211.357 174.357 209.663 174.418 207.937 174.418C206.217 174.418 204.545 174.364 202.934 174.258C201.997 172.876 201.091 171.427 200.233 169.929H200.233C199.377 168.435 198.59 166.929 197.876 165.43C198.589 163.929 199.375 162.42 200.226 160.929L200.226 160.929C201.079 159.434 201.977 157.992 202.905 156.619C204.549 156.494 206.234 156.428 207.937 156.428H207.937C209.648 156.428 211.335 156.494 212.978 156.621C213.891 157.984 214.783 159.421 215.64 160.916C216.506 162.429 217.302 163.927 218.022 165.397C217.305 166.891 216.51 168.405 215.648 169.916ZM220.517 143.279C222.368 144.357 223.087 148.706 221.925 154.409C221.85 154.773 221.767 155.143 221.676 155.519C219.384 154.984 216.894 154.586 214.288 154.339C212.77 152.154 211.196 150.168 209.617 148.448C210.042 148.036 210.466 147.642 210.888 147.271C214.967 143.683 218.78 142.267 220.517 143.279ZM207.937 160.387C210.662 160.387 212.871 162.619 212.871 165.373C212.871 168.127 210.662 170.359 207.937 170.359C205.212 170.359 203.003 168.127 203.003 165.373C203.003 162.619 205.212 160.387 207.937 160.387Z" fill="white"/>
</g>
<rect x="249.379" y="238.972" width="65.0596" height="65.0596" rx="18" fill="url(#paint1_linear_3_135)" fill-opacity="0.4"/>
<g clip-path="url(#clip1_3_135)">
<path d="M294.119 254.123H301.961L282.354 288.849L262.747 254.123H270.492H277.747L282.354 262.175L286.864 254.123H294.119Z" fill="white"/>
<path d="M262.747 254.123L282.354 288.849L301.961 254.123H294.119L282.354 274.959L270.492 254.123H262.747Z" fill="white"/>
<path d="M270.492 254.123L282.354 275.059L294.119 254.123H286.864L282.354 262.175L277.747 254.123H270.492Z" fill="#35495E" fill-opacity="0.2"/>
</g>
<rect x="105" y="238.972" width="49.9088" height="49.9088" rx="18" fill="url(#paint2_linear_3_135)" fill-opacity="0.4"/>
<g clip-path="url(#clip2_3_135)">
<path d="M141.618 252.898C138.635 248.757 132.742 247.53 128.481 250.162L120.998 254.787C118.954 256.034 117.546 258.058 117.12 260.363C116.763 262.283 117.077 264.263 118.011 265.991C117.371 266.933 116.934 267.992 116.727 269.102C116.297 271.451 116.86 273.87 118.29 275.811C121.274 279.953 127.167 281.18 131.427 278.547L138.91 273.923C140.954 272.676 142.362 270.652 142.789 268.347C143.146 266.427 142.832 264.446 141.898 262.718C142.538 261.776 142.975 260.718 143.181 259.607C143.612 257.258 143.049 254.839 141.619 252.898" fill="white" fill-opacity="0.4"/>
<path d="M127.75 276.205C125.337 276.813 122.789 275.898 121.368 273.911C120.507 272.744 120.169 271.289 120.428 269.876C120.471 269.646 120.531 269.419 120.606 269.198L120.747 268.781L121.131 269.054C122.017 269.685 123.007 270.165 124.059 270.473L124.337 270.555L124.312 270.824C124.278 271.207 124.385 271.589 124.613 271.903C125.041 272.501 125.808 272.777 126.535 272.595C126.698 272.552 126.853 272.486 126.995 272.399L134.48 267.773C134.85 267.547 135.106 267.18 135.183 266.763C135.261 266.337 135.159 265.898 134.9 265.546C134.472 264.948 133.705 264.672 132.978 264.854C132.815 264.896 132.66 264.962 132.519 265.05L129.662 266.816C129.193 267.105 128.68 267.324 128.142 267.463C125.73 268.071 123.182 267.155 121.761 265.169C120.9 264.001 120.561 262.547 120.82 261.133C121.077 259.747 121.924 258.53 123.154 257.78L130.638 253.154C131.108 252.864 131.621 252.645 132.159 252.506C134.572 251.898 137.12 252.813 138.541 254.8C139.401 255.967 139.74 257.422 139.481 258.835C139.437 259.065 139.378 259.291 139.302 259.513L139.161 259.93L138.778 259.657C137.892 259.026 136.902 258.546 135.85 258.238L135.571 258.156L135.597 257.887C135.631 257.504 135.524 257.122 135.295 256.808C134.868 256.209 134.1 255.933 133.374 256.116C133.211 256.158 133.056 256.224 132.914 256.312L125.429 260.938C125.058 261.164 124.803 261.531 124.726 261.948C124.648 262.374 124.75 262.812 125.009 263.165C125.437 263.763 126.204 264.039 126.931 263.857C127.094 263.814 127.249 263.748 127.391 263.661L130.247 261.896C130.716 261.606 131.229 261.387 131.766 261.248C134.179 260.64 136.727 261.555 138.148 263.542C139.008 264.709 139.347 266.164 139.088 267.577C138.832 268.964 137.985 270.181 136.755 270.932L129.27 275.557C128.8 275.847 128.288 276.066 127.749 276.205" fill="white"/>
</g>
<rect x="120.151" y="29.5333" width="62.386" height="62.386" rx="18" fill="url(#paint3_linear_3_135)" fill-opacity="0.4"/>
<path d="M145.941 79.4395C143.759 78.4926 141.718 76.0856 141.713 73.6227C141.707 70.9376 143.402 68.6579 145.509 67.1597C145.256 68.121 145.118 69.0002 145.745 69.86C146.329 70.6595 147.351 71.048 148.316 70.8371C150.571 70.3415 150.674 67.8521 149.338 66.4019C148.016 64.9657 146.737 63.3434 147.24 61.2605C147.492 60.2165 148.131 59.2386 148.939 58.5396C148.318 60.18 150.084 61.7979 151.248 62.6037C153.267 64.0018 155.482 65.0584 157.339 66.6973C159.291 68.4197 160.733 70.7489 160.442 73.4499C160.126 76.3777 157.81 78.414 155.211 79.4421C160.702 78.2249 166.377 73.9451 166.493 67.8292C166.589 62.7979 163.152 58.9259 158.894 56.709L158.672 56.5871C158.789 56.8718 158.827 57.1141 158.822 57.3309C158.861 57.171 158.886 57.0066 158.894 56.8371C158.892 57.048 158.865 57.247 158.816 57.4339L158.822 57.3309C158.758 57.6023 158.651 57.8545 158.507 58.0853L158.57 58.0178C157.72 59.4325 155.421 59.7398 154.285 58.2748C152.458 55.9183 154.323 53.3776 154.584 50.8822C154.91 47.7547 152.957 44.7187 150.535 42.9017C151.869 45.0684 150.112 47.9349 148.706 49.5372C147.343 51.0909 145.685 52.3878 144.18 53.7993C142.563 55.3152 141.009 56.9121 139.681 58.6913C137.023 62.2525 135.396 66.7313 136.592 71.1743C137.787 75.614 141.616 78.4402 145.941 79.4395Z" fill="white"/>
<g filter="url(#filter0_f_3_135)">
<rect x="25" y="100" width="48" height="48" rx="18" fill="url(#paint4_linear_3_135)" fill-opacity="0.4"/>
</g>
<rect x="654" y="15" width="65" height="65" rx="18" fill="url(#paint5_linear_3_135)" fill-opacity="0.4"/>
<g filter="url(#filter1_f_3_135)">
<rect x="630" y="216" width="46" height="46" rx="18" fill="url(#paint6_linear_3_135)" fill-opacity="0.4"/>
</g>
<g filter="url(#filter2_f_3_135)">
<rect x="705" y="288" width="37" height="37" rx="18" fill="url(#paint7_linear_3_135)" fill-opacity="0.4"/>
</g>
<g filter="url(#filter3_f_3_135)">
<rect x="485" y="8" width="28" height="28" rx="14" fill="url(#paint8_linear_3_135)" fill-opacity="0.4"/>
</g>
<g filter="url(#filter4_f_3_135)">
<rect x="680" y="137" width="22" height="22" rx="11" fill="url(#paint9_linear_3_135)" fill-opacity="0.4"/>
</g>
<g filter="url(#filter5_f_3_135)">
<rect x="-13" y="216" width="46" height="46" rx="18" fill="url(#paint10_linear_3_135)" fill-opacity="0.4"/>
</g>
<rect x="520.312" y="248.775" width="49.0175" height="49.0175" rx="18" fill="url(#paint11_linear_3_135)" fill-opacity="0.4"/>
<path d="M545.267 282.481V287.989C554.604 287.989 561.874 278.969 558.819 269.185C557.484 264.909 554.087 261.512 549.811 260.177C540.027 257.123 531.007 264.393 531.007 273.73H536.528C536.529 273.73 536.53 273.729 536.53 273.729C536.531 267.869 542.33 263.339 548.49 265.574C550.772 266.402 552.593 268.223 553.422 270.505C555.657 276.662 551.134 282.458 545.279 282.467V276.976C545.279 276.976 545.279 276.975 545.278 276.975H539.774C539.774 276.975 539.773 276.976 539.773 276.976V282.481H545.267ZM539.772 286.712H535.543L535.542 286.711V282.481H539.773V286.711C539.773 286.711 539.773 286.712 539.772 286.712ZM535.545 282.481H531.999C531.998 282.481 531.997 282.48 531.997 282.48V278.936C531.997 278.936 531.998 278.933 531.999 278.933H535.542C535.544 278.933 535.545 278.935 535.545 278.935V282.481Z" fill="white"/>
<rect x="306.418" y="25.9684" width="122.098" height="122.098" rx="18" fill="url(#paint12_linear_3_135)" fill-opacity="0.4"/>
<g clip-path="url(#clip3_3_135)">
<path d="M367.912 126.53C366.833 126.53 365.825 126.239 364.89 125.73L355.319 119.984C353.88 119.184 354.599 118.893 355.031 118.747C356.974 118.093 357.334 117.947 359.349 116.784C359.565 116.638 359.852 116.711 360.068 116.856L367.409 121.293C367.696 121.439 368.056 121.439 368.272 121.293L396.985 104.491C397.273 104.346 397.417 104.055 397.417 103.691V70.1603C397.417 69.7967 397.273 69.5057 396.985 69.3603L368.272 52.6312C367.984 52.4857 367.624 52.4857 367.409 52.6312L338.696 69.3603C338.408 69.5057 338.264 69.8694 338.264 70.1603V103.691C338.264 103.982 338.408 104.346 338.696 104.491L346.539 109.074C350.785 111.256 353.448 108.71 353.448 106.164V73.0697C353.448 72.6333 353.808 72.1969 354.311 72.1969H357.981C358.413 72.1969 358.845 72.5606 358.845 73.0697V106.164C358.845 111.91 355.751 115.256 350.353 115.256C348.698 115.256 347.403 115.256 343.733 113.438L336.177 109.074C334.306 107.983 333.154 105.946 333.154 103.764V70.2331C333.154 68.051 334.306 66.0144 336.177 64.9234L364.89 48.1216C366.689 47.1033 369.136 47.1033 370.935 48.1216L399.648 64.9234C401.519 66.0144 402.67 68.051 402.67 70.2331V103.764C402.67 105.946 401.519 107.983 399.648 109.074L370.935 125.875C369.999 126.312 368.92 126.53 367.912 126.53ZM376.764 103.473C364.17 103.473 361.58 97.6542 361.58 92.7082C361.58 92.2718 361.939 91.8354 362.443 91.8354H366.185C366.617 91.8354 366.977 92.1263 366.977 92.5627C367.552 96.4177 369.208 98.3088 376.836 98.3088C382.88 98.3088 385.471 96.9268 385.471 93.6538C385.471 91.7627 384.752 90.3807 375.324 89.4351C367.481 88.6351 362.587 86.8894 362.587 80.5615C362.587 74.6699 367.481 71.1786 375.684 71.1786C384.895 71.1786 389.429 74.379 390.005 81.3615C390.005 81.5798 389.933 81.798 389.789 82.0162C389.645 82.1616 389.429 82.3071 389.213 82.3071H385.471C385.111 82.3071 384.752 82.0162 384.68 81.6525C383.816 77.6521 381.585 76.3428 375.684 76.3428C369.064 76.3428 368.272 78.6703 368.272 80.416C368.272 82.5253 369.208 83.1799 378.131 84.3437C386.982 85.5074 391.156 87.1804 391.156 93.4356C391.084 99.8363 385.903 103.473 376.764 103.473Z" fill="white"/>
</g>
<rect x="367.912" y="180.151" width="91.7965" height="91.7965" rx="18" fill="url(#paint13_linear_3_135)" fill-opacity="0.4"/>
<g clip-path="url(#clip4_3_135)">
<path d="M439.182 211.432C439.201 211.5 439.211 211.571 439.211 211.643V222.719C439.211 223.008 439.056 223.275 438.806 223.419L429.55 228.771V239.38C429.55 239.669 429.397 239.935 429.148 240.081L409.827 251.252C409.782 251.277 409.734 251.293 409.686 251.31C409.668 251.316 409.651 251.327 409.632 251.332C409.496 251.368 409.354 251.368 409.219 251.332C409.197 251.326 409.177 251.314 409.156 251.306C409.112 251.29 409.066 251.276 409.023 251.252L389.706 240.081C389.456 239.937 389.302 239.669 389.302 239.38V206.152C389.302 206.079 389.312 206.009 389.33 205.94C389.336 205.917 389.35 205.896 389.358 205.872C389.373 205.83 389.387 205.787 389.409 205.747C389.424 205.721 389.446 205.7 389.465 205.675C389.488 205.643 389.509 205.61 389.536 205.582C389.559 205.558 389.589 205.541 389.615 205.521C389.645 205.497 389.671 205.471 389.704 205.451H389.705L399.364 199.866C399.613 199.722 399.919 199.722 400.168 199.866L409.828 205.451H409.83C409.862 205.472 409.889 205.497 409.918 205.52C409.944 205.54 409.973 205.558 409.996 205.581C410.025 205.61 410.045 205.643 410.069 205.675C410.086 205.7 410.109 205.721 410.123 205.747C410.146 205.788 410.159 205.83 410.175 205.872C410.183 205.896 410.197 205.917 410.203 205.941C410.222 206.01 410.231 206.081 410.232 206.152V226.906L418.281 222.251V211.642C418.281 211.571 418.291 211.499 418.309 211.432C418.316 211.407 418.329 211.386 418.337 211.363C418.353 211.321 418.367 211.277 418.389 211.238C418.404 211.211 418.426 211.19 418.444 211.166C418.468 211.134 418.488 211.1 418.516 211.072C418.539 211.049 418.568 211.032 418.594 211.012C418.624 210.987 418.651 210.961 418.683 210.942H418.684L428.344 205.356C428.593 205.212 428.899 205.212 429.148 205.356L438.807 210.942C438.842 210.962 438.868 210.987 438.898 211.011C438.923 211.031 438.952 211.049 438.975 211.071C439.003 211.1 439.024 211.134 439.048 211.166C439.066 211.19 439.088 211.211 439.102 211.238C439.125 211.277 439.138 211.321 439.154 211.363C439.163 211.386 439.176 211.407 439.182 211.432ZM437.6 222.251V213.041L434.22 214.995L429.55 217.695V226.906L437.601 222.251H437.6ZM427.941 238.913V229.696L423.348 232.331L410.231 239.849V249.153L427.941 238.913ZM390.912 207.55V238.913L408.62 249.152V239.85L399.369 234.592L399.366 234.59L399.362 234.588C399.331 234.57 399.305 234.544 399.276 234.521C399.251 234.501 399.221 234.485 399.199 234.463L399.197 234.46C399.171 234.435 399.153 234.403 399.131 234.375C399.111 234.348 399.087 234.325 399.071 234.296L399.07 234.293C399.052 234.263 399.04 234.227 399.027 234.192C399.014 234.162 398.997 234.134 398.989 234.101V234.1C398.979 234.062 398.977 234.022 398.973 233.982C398.969 233.952 398.961 233.922 398.961 233.892V233.889V212.205L394.292 209.503L390.912 207.551V207.55ZM399.767 201.499L391.719 206.152L399.765 210.805L407.812 206.151L399.765 201.499H399.767ZM403.953 230.536L408.621 227.837V207.55L405.241 209.504L400.571 212.205V232.491L403.953 230.536ZM428.746 206.99L420.699 211.643L428.746 216.295L436.792 211.642L428.746 206.99ZM427.941 217.695L423.271 214.995L419.891 213.041V222.251L424.56 224.951L427.941 226.906V217.695ZM409.424 238.451L421.228 231.684L427.128 228.302L419.087 223.652L409.829 229.006L401.39 233.884L409.424 238.451Z" fill="white"/>
</g>
<rect x="498.923" y="87.4632" width="114.077" height="114.077" rx="18" fill="url(#paint14_linear_3_135)" fill-opacity="0.4"/>
<g clip-path="url(#clip5_3_135)">
<path d="M555.961 123.112C546.455 123.112 540.513 127.853 538.137 137.335C541.702 132.594 545.861 130.816 550.614 132.001C553.326 132.678 555.264 134.64 557.41 136.812C560.905 140.351 564.95 144.446 573.786 144.446C583.292 144.446 589.234 139.705 591.611 130.224C588.046 134.964 583.887 136.742 579.133 135.557C576.421 134.881 574.483 132.919 572.337 130.746C568.842 127.208 564.797 123.112 555.961 123.112ZM538.137 144.446C528.63 144.446 522.689 149.187 520.312 158.669C523.877 153.928 528.036 152.15 532.789 153.335C535.501 154.012 537.44 155.974 539.585 158.146C543.081 161.685 547.126 165.78 555.961 165.78C565.468 165.78 571.409 161.039 573.786 151.557C570.221 156.298 566.062 158.076 561.309 156.891C558.597 156.215 556.658 154.252 554.513 152.08C551.018 148.542 546.972 144.446 538.137 144.446Z" fill="url(#paint15_linear_3_135)"/>
</g>
<defs>
<filter id="filter0_f_3_135" x="17" y="92" width="64" height="64" filterUnits="userSpaceOnUse" color-interpolation-filters="sRGB">
<feFlood flood-opacity="0" result="BackgroundImageFix"/>
<feBlend mode="normal" in="SourceGraphic" in2="BackgroundImageFix" result="shape"/>
<feGaussianBlur stdDeviation="4" result="effect1_foregroundBlur_3_135"/>
</filter>
<filter id="filter1_f_3_135" x="622" y="208" width="62" height="62" filterUnits="userSpaceOnUse" color-interpolation-filters="sRGB">
<feFlood flood-opacity="0" result="BackgroundImageFix"/>
<feBlend mode="normal" in="SourceGraphic" in2="BackgroundImageFix" result="shape"/>
<feGaussianBlur stdDeviation="4" result="effect1_foregroundBlur_3_135"/>
</filter>
<filter id="filter2_f_3_135" x="697" y="280" width="53" height="53" filterUnits="userSpaceOnUse" color-interpolation-filters="sRGB">
<feFlood flood-opacity="0" result="BackgroundImageFix"/>
<feBlend mode="normal" in="SourceGraphic" in2="BackgroundImageFix" result="shape"/>
<feGaussianBlur stdDeviation="4" result="effect1_foregroundBlur_3_135"/>
</filter>
<filter id="filter3_f_3_135" x="477" y="0" width="44" height="44" filterUnits="userSpaceOnUse" color-interpolation-filters="sRGB">
<feFlood flood-opacity="0" result="BackgroundImageFix"/>
<feBlend mode="normal" in="SourceGraphic" in2="BackgroundImageFix" result="shape"/>
<feGaussianBlur stdDeviation="4" result="effect1_foregroundBlur_3_135"/>
</filter>
<filter id="filter4_f_3_135" x="672" y="129" width="38" height="38" filterUnits="userSpaceOnUse" color-interpolation-filters="sRGB">
<feFlood flood-opacity="0" result="BackgroundImageFix"/>
<feBlend mode="normal" in="SourceGraphic" in2="BackgroundImageFix" result="shape"/>
<feGaussianBlur stdDeviation="4" result="effect1_foregroundBlur_3_135"/>
</filter>
<filter id="filter5_f_3_135" x="-21" y="208" width="62" height="62" filterUnits="userSpaceOnUse" color-interpolation-filters="sRGB">
<feFlood flood-opacity="0" result="BackgroundImageFix"/>
<feBlend mode="normal" in="SourceGraphic" in2="BackgroundImageFix" result="shape"/>
<feGaussianBlur stdDeviation="4" result="effect1_foregroundBlur_3_135"/>
</filter>
<linearGradient id="paint0_linear_3_135" x1="207.937" y1="124.004" x2="207.937" y2="206.888" gradientUnits="userSpaceOnUse">
<stop stop-color="#4F46E5"/>
<stop offset="1" stop-color="#4F46E5" stop-opacity="0"/>
</linearGradient>
<linearGradient id="paint1_linear_3_135" x1="281.909" y1="238.972" x2="281.909" y2="304.032" gradientUnits="userSpaceOnUse">
<stop stop-color="#4F46E5"/>
<stop offset="1" stop-color="#4F46E5" stop-opacity="0"/>
</linearGradient>
<linearGradient id="paint2_linear_3_135" x1="129.954" y1="238.972" x2="129.954" y2="288.881" gradientUnits="userSpaceOnUse">
<stop stop-color="#4F46E5"/>
<stop offset="1" stop-color="#4F46E5" stop-opacity="0"/>
</linearGradient>
<linearGradient id="paint3_linear_3_135" x1="151.344" y1="29.5333" x2="151.344" y2="91.9193" gradientUnits="userSpaceOnUse">
<stop stop-color="#4F46E5"/>
<stop offset="1" stop-color="#4F46E5" stop-opacity="0"/>
</linearGradient>
<linearGradient id="paint4_linear_3_135" x1="49" y1="100" x2="49" y2="148" gradientUnits="userSpaceOnUse">
<stop stop-color="#6B63EB"/>
<stop offset="1" stop-color="#4F46E5" stop-opacity="0"/>
</linearGradient>
<linearGradient id="paint5_linear_3_135" x1="686.5" y1="15" x2="686.5" y2="80" gradientUnits="userSpaceOnUse">
<stop stop-color="#4F46E5"/>
<stop offset="1" stop-color="#4F46E5" stop-opacity="0"/>
</linearGradient>
<linearGradient id="paint6_linear_3_135" x1="653" y1="216" x2="653" y2="262" gradientUnits="userSpaceOnUse">
<stop stop-color="#6B63EB"/>
<stop offset="1" stop-color="#4F46E5" stop-opacity="0"/>
</linearGradient>
<linearGradient id="paint7_linear_3_135" x1="723.5" y1="288" x2="723.5" y2="325" gradientUnits="userSpaceOnUse">
<stop stop-color="#6B63EB"/>
<stop offset="1" stop-color="#4F46E5" stop-opacity="0"/>
</linearGradient>
<linearGradient id="paint8_linear_3_135" x1="499" y1="8" x2="499" y2="36" gradientUnits="userSpaceOnUse">
<stop stop-color="#6B63EB"/>
<stop offset="1" stop-color="#4F46E5" stop-opacity="0"/>
</linearGradient>
<linearGradient id="paint9_linear_3_135" x1="691" y1="137" x2="691" y2="159" gradientUnits="userSpaceOnUse">
<stop stop-color="#6B63EB"/>
<stop offset="1" stop-color="#4F46E5" stop-opacity="0"/>
</linearGradient>
<linearGradient id="paint10_linear_3_135" x1="10" y1="216" x2="10" y2="262" gradientUnits="userSpaceOnUse">
<stop stop-color="#6B63EB"/>
<stop offset="1" stop-color="#4F46E5" stop-opacity="0"/>
</linearGradient>
<linearGradient id="paint11_linear_3_135" x1="544.821" y1="248.775" x2="544.821" y2="297.793" gradientUnits="userSpaceOnUse">
<stop stop-color="#4F46E5"/>
<stop offset="1" stop-color="#4F46E5" stop-opacity="0"/>
</linearGradient>
<linearGradient id="paint12_linear_3_135" x1="367.467" y1="25.9684" x2="367.467" y2="148.067" gradientUnits="userSpaceOnUse">
<stop stop-color="#4F46E5"/>
<stop offset="1" stop-color="#4F46E5" stop-opacity="0"/>
</linearGradient>
<linearGradient id="paint13_linear_3_135" x1="413.811" y1="180.151" x2="413.811" y2="271.947" gradientUnits="userSpaceOnUse">
<stop stop-color="#4F46E5"/>
<stop offset="1" stop-color="#4F46E5" stop-opacity="0"/>
</linearGradient>
<linearGradient id="paint14_linear_3_135" x1="555.961" y1="87.4632" x2="555.961" y2="201.54" gradientUnits="userSpaceOnUse">
<stop stop-color="#4F46E5"/>
<stop offset="1" stop-color="#4F46E5" stop-opacity="0"/>
</linearGradient>
<linearGradient id="paint15_linear_3_135" x1="518.332" y1="136.766" x2="579.829" y2="172.316" gradientUnits="userSpaceOnUse">
<stop stop-color="white"/>
<stop offset="1" stop-color="white" stop-opacity="0.5"/>
</linearGradient>
<clipPath id="clip0_3_135">
<rect width="55.2561" height="49.7305" fill="white" transform="translate(180.309 140.58)"/>
</clipPath>
<clipPath id="clip1_3_135">
<rect width="39.214" height="34.7579" fill="white" transform="translate(262.747 254.123)"/>
</clipPath>
<clipPath id="clip2_3_135">
<rect width="26.7368" height="31.193" fill="white" transform="translate(116.586 248.775)"/>
</clipPath>
<clipPath id="clip3_3_135">
<rect width="69.5158" height="79.3193" fill="white" transform="translate(333.154 47.3579)"/>
</clipPath>
<clipPath id="clip4_3_135">
<rect width="49.9088" height="51.6912" fill="white" transform="translate(389.302 199.758)"/>
</clipPath>
<clipPath id="clip5_3_135">
<rect width="71.2982" height="42.7789" fill="white" transform="translate(520.312 123.112)"/>
</clipPath>
</defs>
</svg>
